
<svg id="logo-svg" data-name="logo" xmlns="http://www.w3.org/2000/svg"
    xmlns:xlink="http://www.w3.org/1999/xlink" viewBox="0 0 64 64">
    <defs>
        <symbol id="K-hand" data-name="K-hand" viewBox="0 0 22.825 53.581">
            <path class="black"
                d="M11.162,1.0205A1.6237,1.6237,0,0,0,9.95.1357,6.5085,6.5085,0,0,0,8.59.0033a1.46,1.46,0,0,0-1.4546,1.9c.16.8711.7558,4.7821.9451,6.107a19.8967,19.8967,0,0,0-.4857,5.0014,28.7523,28.7523,0,0,0,.3393,2.97c.0678.4852.0276.6069-.4485.7674-.105.0355-.213.0627-.32.09a3.9452,3.9452,0,0,0-2.9868,3.5136,18.0681,18.0681,0,0,0-.3139,2.89,1.97,1.97,0,0,1-1.38,2.0492A4.4817,4.4817,0,0,0,.0912,28.2742a1.7461,1.7461,0,0,0-.0726.818c.1847,1.2763.4061,2.5472.6043,3.8216.4071,2.6174.8042,5.2364,1.2138,7.8535a9.5747,9.5747,0,0,0,.359,1.8306,14.6883,14.6883,0,0,0,1.1019,2.2852,7.2606,7.2606,0,0,0,.9558,1.0723.7925.7925,0,0,1,.2235.322c.057.3125.0729.6328.1.95q.1752,2.05.347,4.1007a.6808.6808,0,0,0,.4827.6109c.6036.2467,1.2062.4992,1.7939.7812a8.9649,8.9649,0,0,0,5.4822.7168,18.6233,18.6233,0,0,0,6.4609-2.5731.5517.5517,0,0,0,.2814-.54c.02-.8442.086-1.6872.1308-2.5309a9.28,9.28,0,0,0-.1283-3.3454.7217.7217,0,0,1,.2321-.8412,5.3723,5.3723,0,0,0,1.61-3.0346,27.458,27.458,0,0,0,.1071-5.9332,21.9129,21.9129,0,0,1,.0261-3.1157,23.3658,23.3658,0,0,0,.1851-3.5127c-.0754-1.5894-.0521-3.188.02-4.7786.065-1.4378.2472-2.8706.3864-4.3047.17-1.7516.3649-3.5009.5191-5.2539.1275-1.449.26-2.9.3-4.3533.0378-1.3574-.0256-2.7186-.0755-4.077a2.99,2.99,0,0,0-2.5547-3.151A1.5878,1.5878,0,0,0,18.3081,3.317,41.8572,41.8572,0,0,0,17.6527,9.26c-.1052.9618-.31,1.9127-.4694,2.8686-.0653.3919-.2754.5477-.69.5364a14.49,14.49,0,0,0-1.5767.0854,1.8686,1.8686,0,0,0-1.4917.79.9233.9233,0,0,1-.2059.1549,4.25,4.25,0,0,1-.1124-.4415c-.2067-1.511-.3885-3.0256-.6172-4.5331-.2786-1.8363-.3491-3.636-.6575-5.4675-.0227-.1352-.1684-.7112-.2513-.9683S11.3423,1.4449,11.162,1.0205Z" />
            <path class="white"
                d="M8.5367,7.5761A9.4707,9.4707,0,0,1,11.3651,7.17c.2746-.0378.3718-.1717.3484-.4459-.11-1.2953-.14-2.4115-.2879-3.3087a9.3241,9.3241,0,0,0-.61-2.1163,1.612,1.612,0,0,0-.6548-.6978A2.26,2.26,0,0,0,8.2254.6031,1.037,1.037,0,0,0,7.5076,1.74c.1453,1.055.2654,2.1143.4466,3.1632C8.1036,5.7686,8.3258,6.6217,8.5367,7.5761ZM20.9676,29.9209l-.7383-.0358c.1751-.3472.3162-.6625.489-.96a.5975.5975,0,0,0-.0129-.6865,24.7445,24.7445,0,0,1-1.2334-2.2162,20.5133,20.5133,0,0,1-.8491-2.287,4.6164,4.6164,0,0,1-.1111-.9305c-.645.0168-1.18.6834-1.9214.1953l1.2979-.7743-1.179-.2908.0139-.1439c.3994-.2661.7991-.5321,1.2163-.81-.0883-.193-.1626-.3546-.2361-.5164-.58-1.2728-1.1889-2.5334-1.7294-3.8227a3.624,3.624,0,0,1-.0494-2.84c.0852-.21.1863-.4128.2842-.6278a2.1691,2.1691,0,0,0-2.5847,1.456A28.871,28.871,0,0,0,12.66,19.984a1.0886,1.0886,0,0,0,.4366.9876l.7712.67-.6323.2065c.258,1.4487.4929,2.8575.77,4.2578a1.77,1.77,0,0,0,.4275.86c.524.5329,1.1165.9979,1.6678,1.5051.3159.2909.6049.6109.9062.9177-.0322.0425-.0645.085-.0964.1274-.366-.1835-.7439-.3469-1.0945-.5558-.4048-.241-.7759-.5387-1.1814-.7781-.1841-.1087-.5125-.2532-.6057-.1761a1.0727,1.0727,0,0,0-.3543.6867c-.0368.5372.0345,1.0808.0288,1.6214a1.5,1.5,0,0,1-.1455.6657,1.88,1.88,0,0,1-1.44,1.0148.4687.4687,0,0,0-.3137.279,10.8205,10.8205,0,0,0-.22,1.2271,3.28,3.28,0,0,1-.8784,2.2693.4427.4427,0,0,0-.0762.3063,6.47,6.47,0,0,0,1.8152,4.4788c.1191.1245.2373.25.4184.4407h-.8576c.0124.2795.0227.5174.0334.7554a.3838.3838,0,0,1-.2292-.1707,10.5732,10.5732,0,0,1-1.7854-5.8c.0056-.2649-.0564-.3985-.3364-.4518a3.8808,3.8808,0,0,1-2.43-1.489c-.679-.8935-1.31-1.824-1.9434-2.7513a.4992.4992,0,0,0-.4975-.27c-.637.0417-1.2764.0495-1.9129.0981a3.0257,3.0257,0,0,0-1.7185.6646.8093.8093,0,0,0-.3325.9156c.4951,2.3749.9512,4.7581,1.4116,7.14a11.792,11.792,0,0,0,.4214,2.24,25.135,25.135,0,0,0,1.56,2.8855,1.7374,1.7374,0,0,0,1.2153.8042,4.4373,4.4373,0,0,0,3.4719-.5817c.4878-.3156,1.0008-.5959,1.5179-.8615a7.8955,7.8955,0,0,1,.9157-.3375c.1138.9242.219,1.7775.324,2.6308l.1035.0038c.063-.6006.13-1.2008.1875-1.802a2.5377,2.5377,0,0,1,.6694-1.7253,2.4317,2.4317,0,0,0,2.1758,1.14c.5127.0261,1.0283.0051,1.54.0412a3.3868,3.3868,0,0,0,2.6482-1.0876,6.7556,6.7556,0,0,0,1.6323-2.7712,10.0769,10.0769,0,0,0,.2288-4.25A17.0564,17.0564,0,0,1,20.9676,29.9209ZM21.9754,5.5136a8.1973,8.1973,0,0,0-.2568-1.6386,1.5729,1.5729,0,0,0-1.7449-1.0527,1.19,1.19,0,0,0-1.2622,1.1668c-.2007,1.3-.3308,2.6109-.46,3.92-.0478.488-.0075.9848-.0075,1.5056.6316,0,1.2439-.031,1.8518.0086a2.1786,2.1786,0,0,1,1.7141.72,15.8858,15.8858,0,0,0-1.7593-.1954,8.2166,8.2166,0,0,0-1.6262.2.5959.5959,0,0,0-.3377.4072q-.6459,3.2848-1.2439,6.5792a1.2017,1.2017,0,0,0,.1184.7c.4534.9046.969,1.7787,1.4039,2.6916a13.8292,13.8292,0,0,1,.625,1.7484c.1386.4342.195.8976.3618,1.3189a1.0906,1.0906,0,0,0,1.23.7143.3306.3306,0,0,0,.3354-.3688c.1174-2.4126.2554-4.8243.3694-7.2371a.5182.5182,0,0,0-.2339-.3962c-.58-.2959-1.18-.552-1.77-.8269-.6091-.2836-1.2158-.5726-1.9084-.8993,1.594-.6593,2.8755.3126,4.2747.5387.0446-.4594.0937-.9137.1325-1.3689A50.9641,50.9641,0,0,0,21.9754,5.5136ZM5.1461,23.3458c.0058-.3006.0012-.6014.0012-1.024A27.78,27.78,0,0,1,10.56,30.2407c.0435-.4988.0132-.9838.0557-1.4624a1.5462,1.5462,0,0,1,.2713-.7467,2.1617,2.1617,0,0,1,1.7116-.8128,1.2244,1.2244,0,0,0-.0334-.1809,36.3735,36.3735,0,0,0-2.92-6.8269c-.4624-.7557-.8467-1.5591-1.2666-2.3408-.29-.54-.6189-.725-1.186-.4712a8.57,8.57,0,0,0-1.6846,1.0327,1.0035,1.0035,0,0,0-.2778.7713,1.0026,1.0026,0,0,1-.2058.83,1.485,1.485,0,0,0-.2591.5173A10.3959,10.3959,0,0,0,4.49,23.8809C5.0152,23.9079,5.1373,23.8044,5.1461,23.3458Zm5.8928,1.2589a2.24,2.24,0,0,0-.1777.2266.46.46,0,0,0-.1.2481.4821.4821,0,0,1-.6241.5615C9.7738,25.5716,9.418,25.46,9.03,25.36,9.7432,25.0917,10.4061,24.8426,11.0389,24.6047Zm-6.4,5.46L4.6641,29.9a1.8483,1.8483,0,0,0-.436-.2377c-.71-.1821-1.4272-.3331-2.1382-.5113a1,1,0,0,1-.7973-.5741l1.2207.0842c.0373-.25.0705-.4727.1132-.7587a8.482,8.482,0,0,1,3.3492,2.9231,14.2725,14.2725,0,0,0,2.2065,2.7428,5.8829,5.8829,0,0,0,.85.6264c-.38-1.3656-.1635-2.3665,1.15-2.9039a30.98,30.98,0,0,0-3.7373-6.6243,1.3651,1.3651,0,0,0-1.2244-.26C4.005,25.0077,2.75,25.5811,2.69,27.2256c-.3186.0037-.39-.15-.35-.4.0337-.2052.0623-.4112.1021-.677a1.8338,1.8338,0,0,0-1.41,1.4882c-.1687.97-.2666,1.9518-.3869,2.9741a.3188.3188,0,0,0,.3933.3466Zm3.5234-.7535c.1225.1481.2178.263.3682.4446l-1.71.63c-.02-.0423-.04-.0846-.0593-.1268C7.0579,29.73,7.68,29.6667,8.1622,29.3112Zm2.89,16.2c-.1823.1005-.3017.1614-.4167.23-.6067.3636-1.1887.7787-1.825,1.079a6.5023,6.5023,0,0,1-1.7592.5627,1.1074,1.1074,0,0,1-1.293-.7057,1.4631,1.4631,0,0,1-.57-.1769c.1928,1.4536.4238,3.0574.6257,4.482a.382.382,0,0,0,.2393.2284c1.2707.3912,2.5417.7836,3.8217,1.144a13.6112,13.6112,0,0,0,1.3973.2432C11.0892,50.1948,11.3875,47.8759,11.0518,45.5111ZM9.2786,14.37c-.67.0766-.8627.4876-1.0239,1.0056a1.5527,1.5527,0,0,0,.1336,1.2875c.4448.7489.9384,1.4687,1.3952,2.2108.4854.7881.9961,1.566,1.4053,2.393.179.3615.3513.3012.6082.23.269-.075.3911-.19.3569-.53a10.2565,10.2565,0,0,1-.0762-2.3457c.137-1.0235.4614-2.0216.6987-3.0321.2247-.9561-.2915-1.6859-1.4409-1.6789A16.6723,16.6723,0,0,1,9.2786,14.37ZM8.74,8.21a.5859.5859,0,0,0-.4165.6325c-.0154.7752-.1064,1.5485-.1333,2.3238-.0244.71.1272,1.6708.08,2.8537a9.9787,9.9787,0,0,1,4.27-.795q-.3252-2.7394-.6518-5.4929c-.7049.0671-1.3677.1106-2.0244.2A6.8174,6.8174,0,0,0,8.74,8.21Zm7.0293,37.3143a8.0155,8.0155,0,0,1-1.354.1947,1.67,1.67,0,0,1-.7881-.2938c-.11-.0654-.1372-.2718-.2019-.4143a3.6372,3.6372,0,0,1,.4368-.1247,1.4654,1.4654,0,0,1,.3269.0177l.0225-.0661-.9761-.4238c.0168,2.6206-.365,5.19.3181,7.7084a4.84,4.84,0,0,0,2.8882-.8772.4633.4633,0,0,0,.1438-.312c.0085-1.5969.0132-3.1939,0-4.7907C16.5816,45.6569,16.2525,45.4362,15.7691,45.5239Zm-3.1313,1.3835c-.03-.8375-.1138-1.6732-.1731-2.51a12.8043,12.8043,0,0,0-.4842,3.5809,9.8728,9.8728,0,0,1,.06,2.6426,7.211,7.211,0,0,0-.0281,1.3269,3.0951,3.0951,0,0,0,.1089.5448c.5249-.1812.7563-.14.6953-.606a5.9917,5.9917,0,0,1-.07-.6183C12.7081,49.8148,12.6905,48.3605,12.6378,46.9074ZM12.34,28.6108a8.0045,8.0045,0,0,0-1.2712.2407c-.0423.01-.0669.2057-.0528.3087.0489.3549.1331.7052.1763,1.0606.044.361.2044.5287.5252.4312a1.0988,1.0988,0,0,0,.3-.0038c.34-.12.8125-.1447.8667-.5736a2.9764,2.9764,0,0,0-.1792-1.1321C12.6651,28.8022,12.4566,28.6015,12.34,28.6108Zm-2.2834,4.2159c-.2644.0085-.5835-.0339-.6653.2332.0068.8137.2346,1.2484.5915,1.2424.3179-.0053.9563-.5891.9534-.872C10.9325,33.0465,10.606,32.8089,10.0565,32.8267Zm2.0271-10.3936c-.3242.96.4048,1.651.5439,2.5349C13.2115,24.4844,12.8385,22.8645,12.0836,22.4331ZM18.1993,45.227v4.5351c.0454-1.5108.57-3.0151.144-4.5335Zm.9932-30.2463a.0485.0485,0,0,0-.0071.0914l1.8486.7827a.0726.0726,0,0,0,.0972-.0443.1121.1121,0,0,0-.0562-.1359C20.4715,15.3818,19.9871,14.7837,19.1925,14.9807Zm-2.6993.5c.0867-.509.1622-.9517.2444-1.4351C16.0916,14.2326,15.9691,14.9343,16.4932,15.481Zm.7832,34.5859a3.3527,3.3527,0,0,0,0-2.3649ZM20.15,25.1c-.111.4636.2339.72.4561,1.1118C20.8746,25.4419,20.7994,25.265,20.15,25.1ZM10.8961,44.2988,9.99,45.3437C10.8551,45.1028,10.8966,45.0552,10.8961,44.2988Z" />
        </symbol>
        <symbol id="Logo" data-name="Logo" viewBox="0 0 64 64">
            <rect class="red" width="64" height="64" />
            <use width="22.8247" height="53.5807" transform="translate(20.5884 5.179)"
                xlink:href="#K-hand" />
        </symbol>
    </defs>
    <use width="64" height="64" xlink:href="#Logo" />
</svg>